<svg width="42" height="34" viewBox="0 0 42 34" fill="none" xmlns="http://www.w3.org/2000/svg">
<path d="M5.21574 18.2636L0.979021 34H10.6713L16.3497 19.6C17.1329 17.7333 17.6876 16.2333 18.014 15.1C18.4056 13.9667 18.634 13 18.6993 12.2C18.8298 11.3333 18.8951 10.4667 18.8951 9.6C18.8951 6.73334 18.014 4.43334 16.2517 2.7C14.4895 0.9 12.2378 0 9.4965 0C6.82051 0 4.56877 0.9 2.74126 2.7C0.913753 4.43334 0 6.73334 0 9.6C0 12.5333 0.881119 14.8667 2.64336 16.6C3.41381 17.3027 4.27128 17.8572 5.21574 18.2636Z" fill="#ECECEC"/>
<path d="M28.3206 18.2636L24.0839 34H33.7762L39.4545 19.6C40.2378 17.7333 40.7925 16.2333 41.1189 15.1C41.5105 13.9667 41.7389 13 41.8042 12.2C41.9347 11.3333 42 10.4667 42 9.6C42 6.73334 41.1189 4.43334 39.3566 2.7C37.5944 0.9 35.3427 0 32.6014 0C29.9254 0 27.6737 0.9 25.8462 2.7C24.0187 4.43334 23.1049 6.73334 23.1049 9.6C23.1049 12.5333 23.986 14.8667 25.7483 16.6C26.5187 17.3027 27.3762 17.8572 28.3206 18.2636Z" fill="#ECECEC"/>
</svg>
