<svg width="17" height="17" viewBox="0 0 17 17" fill="none" xmlns="http://www.w3.org/2000/svg">
<path fill-rule="evenodd" clip-rule="evenodd" d="M8.5 0C6.1914 0 5.9024 0.00963334 4.99573 0.051C4.09077 0.0923667 3.47253 0.2363 2.93193 0.446533C2.36527 0.6596 1.8513 0.993933 1.4263 1.42687C0.994059 1.85138 0.65952 2.36498 0.445967 2.93193C0.236867 3.47253 0.0923667 4.09133 0.051 4.9963C0.0102 5.9024 0 6.19083 0 8.5C0 10.8092 0.00963334 11.0976 0.051 12.0043C0.0923667 12.9092 0.2363 13.5275 0.446533 14.0681C0.6596 14.6347 0.993933 15.1487 1.42687 15.5737C1.85139 16.0059 2.36499 16.3405 2.93193 16.554C3.47253 16.7637 4.09077 16.9076 4.99573 16.949C5.9024 16.9904 6.1914 17 8.5 17C10.8086 17 11.0976 16.9904 12.0043 16.949C12.9092 16.9076 13.5275 16.7637 14.0681 16.5535C14.6347 16.3404 15.1487 16.0061 15.5737 15.5731C16.0059 15.1486 16.3405 14.635 16.554 14.0681C16.7637 13.5275 16.9076 12.9092 16.949 12.0043C16.9904 11.0976 17 10.8086 17 8.5C17 6.1914 16.9904 5.9024 16.949 4.99573C16.9076 4.09077 16.7637 3.47253 16.5535 2.93193C16.3401 2.36474 16.0055 1.85092 15.5731 1.4263C15.1486 0.994059 14.635 0.65952 14.0681 0.445967C13.5275 0.236867 12.9087 0.0923667 12.0037 0.051C11.0976 0.0102 10.8092 0 8.5 0ZM8.5 1.5317C10.7695 1.5317 11.0387 1.5402 11.9351 1.581C12.7636 1.61897 13.2135 1.75667 13.5133 1.87397C13.91 2.02753 14.1933 2.21227 14.4908 2.5092C14.7883 2.8067 14.9725 3.09003 15.126 3.4867C15.2428 3.78647 15.381 4.2364 15.419 5.06487C15.4598 5.96133 15.4683 6.2305 15.4683 8.5C15.4683 10.7695 15.4598 11.0387 15.419 11.9351C15.381 12.7636 15.2433 13.2135 15.126 13.5133C14.99 13.8825 14.7729 14.2165 14.4908 14.4908C14.2166 14.773 13.8825 14.9901 13.5133 15.126C13.2135 15.2428 12.7636 15.381 11.9351 15.419C11.0387 15.4598 10.7701 15.4683 8.5 15.4683C6.22993 15.4683 5.96133 15.4598 5.06487 15.419C4.2364 15.381 3.78647 15.2433 3.4867 15.126C3.11749 14.99 2.78347 14.7729 2.5092 14.4908C2.2271 14.2165 2.01004 13.8825 1.87397 13.5133C1.75723 13.2135 1.61897 12.7636 1.581 11.9351C1.5402 11.0387 1.5317 10.7695 1.5317 8.5C1.5317 6.2305 1.5402 5.96133 1.581 5.06487C1.61897 4.2364 1.75667 3.78647 1.87397 3.4867C2.02753 3.09003 2.21227 2.8067 2.5092 2.5092C2.78343 2.22703 3.11747 2.00995 3.4867 1.87397C3.78647 1.75723 4.2364 1.61897 5.06487 1.581C5.96133 1.5402 6.2305 1.5317 8.5 1.5317Z" fill="white"/>
<path fill-rule="evenodd" clip-rule="evenodd" d="M8.49986 11.3362C8.12741 11.3362 7.7586 11.2628 7.4145 11.1203C7.0704 10.9778 6.75775 10.7689 6.49439 10.5055C6.23102 10.2421 6.02211 9.92949 5.87958 9.58539C5.73705 9.24129 5.66369 8.87249 5.66369 8.50004C5.66369 8.12758 5.73705 7.75878 5.87958 7.41468C6.02211 7.07058 6.23102 6.75792 6.49439 6.49456C6.75775 6.2312 7.0704 6.02229 7.4145 5.87976C7.7586 5.73723 8.12741 5.66387 8.49986 5.66387C9.25206 5.66387 9.97345 5.96268 10.5053 6.49456C11.0372 7.02645 11.336 7.74784 11.336 8.50004C11.336 9.25223 11.0372 9.97362 10.5053 10.5055C9.97345 11.0374 9.25206 11.3362 8.49986 11.3362ZM8.49986 4.13103C7.34113 4.13103 6.22986 4.59134 5.41051 5.41069C4.59116 6.23003 4.13086 7.3413 4.13086 8.50004C4.13086 9.65877 4.59116 10.77 5.41051 11.5894C6.22986 12.4087 7.34113 12.869 8.49986 12.869C9.65859 12.869 10.7699 12.4087 11.5892 11.5894C12.4086 10.77 12.8689 9.65877 12.8689 8.50004C12.8689 7.3413 12.4086 6.23003 11.5892 5.41069C10.7699 4.59134 9.65859 4.13103 8.49986 4.13103ZM14.1399 4.0517C14.1399 4.3256 14.0311 4.58829 13.8374 4.78197C13.6437 4.97564 13.381 5.08445 13.1071 5.08445C12.8332 5.08445 12.5706 4.97564 12.3769 4.78197C12.1832 4.58829 12.0744 4.3256 12.0744 4.0517C12.0744 3.7778 12.1832 3.51512 12.3769 3.32144C12.5706 3.12776 12.8332 3.01895 13.1071 3.01895C13.381 3.01895 13.6437 3.12776 13.8374 3.32144C14.0311 3.51512 14.1399 3.7778 14.1399 4.0517Z" fill="white"/>
</svg>
