<svg width="132" height="79" viewBox="0 0 132 79" fill="none" xmlns="http://www.w3.org/2000/svg">
<path fill-rule="evenodd" clip-rule="evenodd" d="M11.9662 71.115H4.53914V78.2698H0V60.3182H4.53914V67.1989H11.9662V60.3182H16.5053V78.2698H11.9662V71.115ZM25.376 74.5284H34.8744V78.2698H20.8618V60.3182H34.5502V64.0598H25.376V67.3484H33.4785V70.9902H25.376V74.5284ZM42.8478 74.4782H51.598V78.2698H38.3087V60.3182H42.8478V74.4782ZM54.0848 78.2698V60.3182H58.6239V78.2698H54.0848ZM66.5953 64.1096H61.011V60.3182H76.7188V64.1096H71.1345V78.2698H66.5953V64.1096ZM83.6198 74.5284H93.1184V78.2698H79.1057V60.3182H92.7943V64.0598H83.6198V67.3484H91.7224V70.9902H83.6198V74.5284ZM105.104 78.569C99.6947 78.569 95.4054 74.8216 95.4054 69.2939C95.4054 63.7516 99.711 60.019 105.129 60.019C107.959 60.019 110.67 60.9809 112.502 63.2015L112.653 63.3839L109.697 66.1128L109.528 65.9185C108.419 64.6449 107.024 63.9599 105.329 63.9599C102.189 63.9599 99.9945 66.1537 99.9945 69.2939C99.9945 72.4345 102.189 74.6279 105.329 74.6279C107.032 74.6279 108.423 73.9365 109.526 72.6464L109.695 72.4487L112.652 75.1783L112.503 75.3607C110.67 77.6096 107.955 78.569 105.104 78.569ZM127.461 71.115H120.034V78.2698H115.495V60.3182H120.034V67.1989H127.461V60.3182H132V78.2698H127.461V71.115Z" fill="white"/>
<path fill-rule="evenodd" clip-rule="evenodd" d="M73.1713 0L87.5134 8.51933V43.1549L73.1713 51.674V34.1178L58.8291 25.8372L73.1713 17.5567V0Z" fill="#F3C258"/>
<path fill-rule="evenodd" clip-rule="evenodd" d="M58.8289 8.51929V43.1549L44.4869 34.8744V16.7998L58.8289 8.51929Z" fill="#F3C258"/>
</svg>
