<svg width="174" height="42" viewBox="0 0 174 42" fill="none" xmlns="http://www.w3.org/2000/svg">
<path fill-rule="evenodd" clip-rule="evenodd" d="M56.4482 22.77H49.2275V29.7265H44.8142V12.273H49.2275V18.963H56.4482V12.273H60.8615V29.7265H56.4482V22.77ZM69.486 26.0889H78.7209V29.7265H65.0971V12.273H78.4055V15.9109H69.486V19.1083H77.3634V22.6488H69.486V26.0889ZM86.4727 26.0402H94.9801V29.7265H82.0594V12.273H86.4727V26.0402ZM97.3977 29.7265V12.273H101.811V29.7265H97.3977ZM109.561 15.9593H104.132V12.273H119.404V15.9593H113.974V29.7265H109.561V15.9593ZM126.113 26.0889H135.348V29.7265H121.724V12.273H135.033V15.9109H126.113V19.1083H133.99V22.6488H126.113V26.0889ZM147.001 30.0173C141.741 30.0173 137.571 26.3739 137.571 20.9999C137.571 15.6112 141.757 11.9822 147.025 11.9822C149.777 11.9822 152.412 12.9175 154.193 15.0764L154.34 15.2537L151.466 17.9068L151.301 17.7181C150.224 16.4798 148.867 15.8138 147.219 15.8138C144.167 15.8138 142.033 17.9467 142.033 20.9999C142.033 24.0534 144.167 26.1857 147.219 26.1857C148.875 26.1857 150.228 25.5136 151.3 24.2593L151.464 24.067L154.339 26.7206L154.194 26.8983C152.412 29.0845 149.773 30.0173 147.001 30.0173ZM168.737 22.77H161.516V29.7265H157.103V12.273H161.516V18.963H168.737V12.273H173.15V29.7265H168.737V22.77Z" fill="white"/>
<path fill-rule="evenodd" clip-rule="evenodd" d="M22.9992 0.283203L34.4993 7.11407V34.8861L22.9992 41.717V27.6396L11.4994 21.0002L22.9992 14.3606V0.283203Z" fill="#F3C258"/>
<path fill-rule="evenodd" clip-rule="evenodd" d="M11.4998 7.11377V34.8858L0 28.2461V13.7531L11.4998 7.11377Z" fill="#F3C258"/>
</svg>
