<svg width="124" height="31" viewBox="0 0 124 31" fill="none" xmlns="http://www.w3.org/2000/svg">
<path d="M107.727 17.6822L109.771 19.5687L109.668 19.6946C108.401 21.2494 106.524 21.9128 104.552 21.9128C100.812 21.9128 97.8464 19.3217 97.8464 15.4999C97.8464 11.6678 100.823 9.08691 104.569 9.08691C106.527 9.08691 108.401 9.75206 109.667 11.2873L109.771 11.4131L107.728 13.2992L107.611 13.1655C106.845 12.2846 105.88 11.8109 104.707 11.8109C103.622 11.8109 102.7 12.1902 102.049 12.841C101.398 13.4918 101.018 14.414 101.018 15.4999C101.018 16.586 101.398 17.5082 102.049 18.1589C102.7 18.8096 103.622 19.1888 104.707 19.1888C105.885 19.1888 106.848 18.7107 107.61 17.8185L107.727 17.6822ZM40.1489 16.7583H35.0133V16.7589H35.0127V21.7059H31.8751V9.29374H35.0127V14.0513H35.0133V14.0519H40.1489V14.0513H40.1495V9.29374H43.2871V21.7059H40.1495V16.7589H40.1489V16.7583ZM49.4217 19.12H55.9892V21.7059H46.3008V9.29374H55.7649V11.8799H49.4217V11.8805H49.4211V14.1546H49.4217V14.1552H55.0237V16.6721H49.4217V16.6727H49.4211V19.1194H49.4217V19.12ZM61.5031 19.0853H67.5532V21.7059H58.3649V9.29374H61.5025V19.0847H61.5031V19.0853ZM69.2739 21.7059V9.29374H72.4115V21.7059H69.2739ZM77.9242 11.9144H74.0633V9.29374H84.9239V11.9144H81.0628V11.915H81.0622V21.7059H77.9248V11.915H77.9242V11.9144ZM89.6964 19.12H96.2639V21.7059H86.5755V9.29374H96.0397V11.8799H89.6964V11.8805H89.6958V14.1546H89.6964V14.1552H95.2984V16.6721H89.6964V16.6727H89.6958V19.1194H89.6964V19.12ZM120.012 16.7583H114.876V16.7589H114.875V21.7059H111.738V9.29374H114.875V14.0513H114.876V14.0519H120.012V14.0513H120.012V9.29374H123.15V21.7059H120.012V16.7589H120.012V16.7583Z" fill="#0C0B08" stroke="white" stroke-width="0.00118765"/>
<path d="M16.3583 10.7778V0.766661L24.5362 5.62425V25.3757L16.3583 30.2333V20.2222H16.3589L16.358 20.2217L8.1799 15.5001L16.358 10.7783L16.3583 10.7788V10.7778Z" fill="#F3C258" stroke="white" stroke-width="0.00118765"/>
<path d="M0.000593824 10.3462L8.17836 5.62475V25.3749L0.000593824 20.6533V10.3462Z" fill="#F3C258" stroke="white" stroke-width="0.00118765"/>
</svg>
