<svg width="124" height="31" viewBox="0 0 124 31" fill="none" xmlns="http://www.w3.org/2000/svg">
<path d="M107.727 17.6822L109.771 19.5687L109.668 19.6946C108.401 21.2494 106.524 21.9128 104.553 21.9128C100.812 21.9128 97.8469 19.3217 97.8469 15.4999C97.8469 11.6678 100.824 9.08691 104.57 9.08691C106.527 9.08691 108.401 9.75206 109.668 11.2873L109.772 11.4131L107.729 13.2992L107.612 13.1655C106.845 12.2846 105.88 11.8109 104.708 11.8109C103.622 11.8109 102.7 12.1902 102.049 12.841C101.398 13.4918 101.019 14.414 101.019 15.4999C101.019 16.586 101.398 17.5082 102.049 18.1589C102.7 18.8096 103.622 19.1888 104.708 19.1888C105.886 19.1888 106.848 18.7107 107.611 17.8185L107.727 17.6822ZM40.1494 16.7583H35.0138V16.7589H35.0132V21.7059H31.8756V9.29374H35.0132V14.0513H35.0138V14.0519H40.1494V14.0513H40.15V9.29374H43.2876V21.7059H40.15V16.7589H40.1494V16.7583ZM49.4222 19.12H55.9897V21.7059H46.3013V9.29374H55.7654V11.8799H49.4222V11.8805H49.4216V14.1546H49.4222V14.1552H55.0242V16.6721H49.4222V16.6727H49.4216V19.1194H49.4222V19.12ZM61.5036 19.0853H67.5537V21.7059H58.3653V9.29374H61.503V19.0847H61.5036V19.0853ZM69.2744 21.7059V9.29374H72.412V21.7059H69.2744ZM77.9247 11.9144H74.0638V9.29374H84.9244V11.9144H81.0633V11.915H81.0627V21.7059H77.9253V11.915H77.9247V11.9144ZM89.6969 19.12H96.2644V21.7059H86.576V9.29374H96.0402V11.8799H89.6969V11.8805H89.6963V14.1546H89.6969V14.1552H95.2989V16.6721H89.6969V16.6727H89.6963V19.1194H89.6969V19.12ZM120.012 16.7583H114.876V16.7589H114.876V21.7059H111.738V9.29374H114.876V14.0513H114.876V14.0519H120.012V14.0513H120.013V9.29374H123.15V21.7059H120.013V16.7589H120.012V16.7583Z" fill="white" stroke="white" stroke-width="0.00118765"/>
<path d="M16.3583 10.7778V0.766661L24.5362 5.62425V25.3757L16.3583 30.2333V20.2222H16.3589L16.358 20.2217L8.1799 15.5001L16.358 10.7783L16.3583 10.7788V10.7778Z" fill="white" stroke="white" stroke-width="0.00118765"/>
<path d="M0.000593824 10.3462L8.17836 5.62475V25.3749L0.000593824 20.6533V10.3462Z" fill="white" stroke="white" stroke-width="0.00118765"/>
</svg>
