<svg width="40" height="40" viewBox="0 0 40 40" fill="none" xmlns="http://www.w3.org/2000/svg">
<path d="M40 0H0V40H40V0Z" fill="#F3C258"/>
<path fill-rule="evenodd" clip-rule="evenodd" d="M31 27C32.105 27 33 26.105 33 25C33 21.926 33 16.074 33 13C33 11.895 32.105 11 31 11C26.157 11 13.843 11 9 11C7.895 11 7 11.895 7 13C7 16.074 7 21.926 7 25C7 26.105 7.895 27 9 27C13.843 27 26.157 27 31 27ZM18.5 19.601L20 20.601L21.5 19.601L31.092 25.996C31.062 25.999 31.031 26 31 26H9C8.969 26 8.938 25.999 8.908 25.996L18.5 19.601ZM8.065 12.644L17.599 19L8.065 25.356C8.023 25.245 8 25.125 8 25V13C8 12.875 8.023 12.755 8.065 12.644ZM31.935 12.644C31.977 12.755 32 12.875 32 13V25C32 25.125 31.977 25.245 31.935 25.356L22.401 19L31.935 12.644ZM31.092 12.004L20 19.399L8.908 12.004C8.938 12.001 8.969 12 9 12H31C31.031 12 31.062 12.001 31.092 12.004Z" fill="white"/>
</svg>
