<svg width="80" height="80" viewBox="0 0 80 80" fill="none" xmlns="http://www.w3.org/2000/svg">
<path fill-rule="evenodd" clip-rule="evenodd" d="M24.0102 25.977V17.4734L28.4121 14.172L29.6126 15.7727L26.011 18.4739V25.977H32.4948L40.4982 35.9813H73.8213L79.1356 58.3028L74.4456 62.9928H74.0314V66.9945H72.0306V62.9928H67.3576C69.5915 64.7325 71.0302 67.4477 71.0302 70.496C71.0302 75.7412 66.7713 80 61.5261 80C56.7911 80 52.8604 76.5295 52.1401 71.9966H25.893C25.1727 76.5295 21.242 80 16.507 80C11.772 80 7.84132 76.5295 7.12102 71.9966H0V47.8553L4.23379 31.9796H9.46902L13.4707 25.977H24.0102ZM61.5261 62.9928C65.6669 62.9928 69.0293 66.3552 69.0293 70.496C69.0293 74.6367 65.6669 77.9991 61.5261 77.9991C57.3854 77.9991 54.0229 74.6367 54.0229 70.496C54.0229 66.3552 57.3854 62.9928 61.5261 62.9928ZM16.507 62.9928C20.6478 62.9928 24.0102 66.3552 24.0102 70.496C24.0102 74.6367 20.6478 77.9991 16.507 77.9991C12.3662 77.9991 9.00382 74.6367 9.00382 70.496C9.00382 66.3552 12.3662 62.9928 16.507 62.9928ZM61.5261 64.9936C64.5634 64.9936 67.0285 67.4587 67.0285 70.496C67.0285 73.5332 64.5634 75.9983 61.5261 75.9983C58.4888 75.9983 56.0238 73.5332 56.0238 70.496C56.0238 67.4587 58.4888 64.9936 61.5261 64.9936ZM16.507 64.9936C19.5443 64.9936 22.0093 67.4587 22.0093 70.496C22.0093 73.5332 19.5443 75.9983 16.507 75.9983C13.4697 75.9983 11.0047 73.5332 11.0047 70.496C11.0047 67.4587 13.4697 64.9936 16.507 64.9936ZM61.5261 66.9945C63.4589 66.9945 65.0276 68.5631 65.0276 70.496C65.0276 72.4288 63.4589 73.9974 61.5261 73.9974C59.5933 73.9974 58.0246 72.4288 58.0246 70.496C58.0246 68.5631 59.5933 66.9945 61.5261 66.9945ZM16.507 66.9945C18.4398 66.9945 20.0085 68.5631 20.0085 70.496C20.0085 72.4288 18.4398 73.9974 16.507 73.9974C14.5742 73.9974 13.0055 72.4288 13.0055 70.496C13.0055 68.5631 14.5742 66.9945 16.507 66.9945ZM30.0127 62.9928V69.9957H48.0204V62.9928H30.0127ZM2.03587 47.9864H17.0072V33.9804H19.0081V49.9872H2.00085V69.9957H7.01598C7.27609 64.9826 11.4299 60.9919 16.507 60.9919C21.5842 60.9919 25.7379 64.9826 25.998 69.9957H28.0119V62.4926L24.0102 59.4913V33.9804H5.77045L2.03587 47.9864ZM55.6946 62.9928C53.5837 64.6365 52.1831 67.1515 52.0351 69.9957H50.0212V62.9928H55.6946ZM37.0157 60.9919H73.6172L76.9306 57.6785L72.2407 37.9821H39.5358L31.5324 27.9779H26.011V58.4909L29.3454 60.9919H37.0157ZM67.0285 54.9894H62.4375L59.6493 45.6984L57.7335 46.2727L60.3486 54.9894H52.5993L49.8121 45.6984L47.8963 46.2727L50.5104 54.9894H42.7622L39.975 45.6984L38.0582 46.2727L41.2735 56.9902H71.0302L71.9885 55.7027L68.9873 45.6984L67.0705 46.2727L69.6856 54.9894H67.0285ZM19.0081 52.9885H17.0072V56.9902H19.0081V52.9885ZM11.874 31.9796H24.0102V27.9779H14.5412L11.874 31.9796ZM33.3041 10.5485L31.7135 11.763L32.928 13.3537L34.5187 12.1392L33.3041 10.5485ZM42.8022 11.4939L44.2038 11.682L42.8022 11.4939L44.0157 13.0836L45.6064 11.869L44.3918 10.2794L42.8022 11.4939ZM42.2359 4.9281L40.6453 6.14262L41.8598 7.73229L43.4505 6.51778L42.2359 4.9281ZM35.8922 6.23065L36.0803 4.82806L35.8922 6.23065L37.4829 5.01613L36.2684 3.42646L34.6777 4.64097L35.8922 6.23065ZM45.8555 0L44.2648 1.21452L45.4793 2.80419L47.069 1.58968L45.8555 0Z" fill="#B2B2B2"/>
</svg>
