<svg width="80" height="77" viewBox="0 0 80 77" fill="none" xmlns="http://www.w3.org/2000/svg">
<path fill-rule="evenodd" clip-rule="evenodd" d="M8.81006 56.695L10.0699 57.958L8.66003 59.373L4.72998 55.448L2 54.612V75H7.31006L3 70.686L4.41003 69.272L10.0699 74.929L10 75H12.83L15.73 72.101L17.14 73.515L15.66 75H18V59.507L20 60.119V77H0V39H24V34H7C4.24 34 2 31.761 2 29C2 26.222 2 22.778 2 20C2 17.239 4.24 15 7 15H24V11H31V15H49V11H56V15H62.66C58.1 7.225 49.66 2 40 2C30.34 2 21.9 7.225 17.34 15H15.05C16.21 12.814 17.66 10.798 19.33 9H17V10H15V9H10V7H15V6H17V7H21.39C26.37 2.642 32.88 0 40 0C47.12 0 53.63 2.642 58.61 7H63V6H65V7H70V9H65V10H63V9H60.67C62.34 10.798 63.79 12.814 64.95 15H73C75.76 15 78 17.239 78 20C78 22.778 78 26.222 78 29C78 31.761 75.76 34 73 34H56V39H80V77H60V60.119L62 59.507V75H64.34L62.86 73.515L64.27 72.101L67.17 75H70L69.9301 74.929L75.59 69.272L77 70.686L72.6899 75H78V54.612L55.49 61.5H24.51L8.81006 56.695ZM17.14 67.858L15.73 66.444L10.0699 72.101L11.49 73.515L17.14 67.858ZM62.86 67.858L64.27 66.444L69.9301 72.101L68.52 73.515L62.86 67.858ZM4.41003 63.615L3 65.029L8.66003 70.686L10.0699 69.272L4.41003 63.615ZM75.59 63.615L77 65.029L71.34 70.686L69.9301 69.272L75.59 63.615ZM17.14 62.201L15.73 60.787L10.0699 66.444L11.49 67.858L17.14 62.201ZM62.86 62.201L64.27 60.787L69.9301 66.444L68.52 67.858L62.86 62.201ZM75.59 57.958L77 59.373L71.34 65.029L69.9301 63.615L75.59 57.958ZM4.41003 57.958L3 59.373L8.66003 65.029L10.0699 63.615L4.41003 57.958ZM67.09 57.95L69.9301 60.787L68.52 62.201L64.9301 58.612L67.09 57.95ZM12.91 57.95L10.0699 60.787L11.49 62.201L15.0699 58.612L12.91 57.95ZM2 41V52.521L24.8101 59.5H55.1899L78 52.521V41H2ZM75.27 55.448L71.34 59.373L69.9301 57.958L71.1899 56.695L75.27 55.448ZM53 45H27V54H53V45ZM51 47V52H29V47H51ZM73 45H62V47H73V45ZM18 45H7V47H18V45ZM31 34V39H49V34H31ZM51 39V13H54V39H51ZM26 39V13H29V39H26ZM4 28H24V32H7C5.34 32 4 30.657 4 29V28ZM56 28H76V29C76 30.657 74.66 32 73 32H56V28ZM31 17V32H49V17H31ZM56 23V26H76V23H56ZM4 23V26H24V23H4ZM56 17H73C74.66 17 76 18.343 76 20V21H56V17ZM24 17V21H4V20C4 18.343 5.34 17 7 17H24Z" fill="#B2B2B2"/>
</svg>
