<svg width="80" height="80" viewBox="0 0 80 80" fill="none" xmlns="http://www.w3.org/2000/svg">
<path fill-rule="evenodd" clip-rule="evenodd" d="M27 52.57L40 63.713L52 53.427V64H50V57.775L40 66.347L29 56.918V74H50V68H52V74H56V78H80V80H0V78H23V74H27V52.57ZM25 76V78H54V76H25ZM6.70697 54.707L19.052 42.362L40 60.317L60.948 42.362L73.293 54.707L74.707 53.293L61.052 39.638L40 57.683L18.948 39.638L5.29303 53.293L6.70697 54.707ZM80 24V0H0V24H23V30H29V44.445L40 54.345L51 44.445V36.999C53.61 36.994 55.719 36.952 57.405 36.631C58.82 36.363 59.962 35.898 60.881 35.151C62.026 34.22 62.846 32.842 63.348 30.748C63.753 29.056 63.956 26.857 63.994 24H80ZM49 30H31V43.555L40 51.655L49 43.555V30ZM61.994 24H57V30H51V35C53.009 34.997 54.706 34.976 56.13 34.804C57.598 34.627 58.75 34.305 59.619 33.599C60.474 32.905 61.029 31.845 61.402 30.283C61.78 28.704 61.959 26.656 61.994 24ZM25 24V28H55V24H25ZM2 2V22H78V2H2ZM32 10H30V14H32V10ZM50 10H48V14H50V10ZM41 10H39V14H41V10Z" fill="#F3C258"/>
</svg>
