<svg width="68" height="80" viewBox="0 0 68 80" fill="none" xmlns="http://www.w3.org/2000/svg">
<path fill-rule="evenodd" clip-rule="evenodd" d="M4 27H0V40H4V60C4 71.046 12.954 80 24 80C30.436 80 37.564 80 44 80C55.046 80 64 71.046 64 60C64 43.906 64 22.741 64 15C64 13.343 62.657 12 61 12C50.758 12 17.242 12 7 12C5.343 12 4 13.343 4 15V27ZM62 15V60C62 69.941 53.941 78 44 78C37.564 78 30.436 78 24 78C14.059 78 6 69.941 6 60V15C6 14.448 6.448 14 7 14H61C61.552 14 62 14.448 62 15ZM40 63H38V73H40V63ZM30 63H28V73H30V63ZM35 62H33V73H35V62ZM45 64H43V73H45V64ZM25 64H23V73H25V64ZM58 24C58 22.939 57.579 21.922 56.828 21.172C56.078 20.421 55.061 20 54 20C44.96 20 23.04 20 14 20C12.939 20 11.922 20.421 11.172 21.172C10.421 21.922 10 22.939 10 24C10 28.439 10 35.561 10 40C10 41.061 10.421 42.078 11.172 42.828C11.922 43.579 12.939 44 14 44C23.04 44 44.96 44 54 44C55.061 44 56.078 43.579 56.828 42.828C57.579 42.078 58 41.061 58 40C58 35.561 58 28.439 58 24ZM56 24V40C56 40.53 55.789 41.039 55.414 41.414C55.039 41.789 54.53 42 54 42H14C13.47 42 12.961 41.789 12.586 41.414C12.211 41.039 12 40.53 12 40V24C12 23.47 12.211 22.961 12.586 22.586C12.961 22.211 13.47 22 14 22H54C54.53 22 55.039 22.211 55.414 22.586C55.789 22.961 56 23.47 56 24ZM64 29H66V38H64V40H68V27H64V29ZM53 28C53 26.343 51.657 25 50 25C42.895 25 25.105 25 18 25C16.343 25 15 26.343 15 28C15 30.362 15 33.638 15 36C15 37.657 16.343 39 18 39C25.105 39 42.895 39 50 39C51.657 39 53 37.657 53 36C53 33.638 53 30.362 53 28ZM4 38V29H2V38H4ZM51 28V36C51 36.552 50.552 37 50 37H18C17.448 37 17 36.552 17 36V28C17 27.448 17.448 27 18 27H50C50.552 27 51 27.448 51 28ZM10.895 12C16.009 4.744 24.455 0 34 0C43.545 0 51.991 4.744 57.105 12H54.611C49.801 5.911 42.354 2 34 2C25.646 2 18.199 5.911 13.389 12H10.895Z" fill="#F3C258"/>
</svg>
