<svg width="80" height="80" viewBox="0 0 80 80" fill="none" xmlns="http://www.w3.org/2000/svg">
<path d="M36.0003 35.9998H34.001V45.9997H36.0003V35.9998Z" fill="#F3C258"/>
<path d="M35.4543 44.5457L34.0005 45.9995L40.0005 51.9995L41.4543 50.5457L35.4543 44.5457Z" fill="#F3C258"/>
<path d="M44.5467 44.5457L46.0005 45.9995L40.0005 51.9995L38.5467 50.5457L44.5467 44.5457Z" fill="#F3C258"/>
<path d="M49.9998 62H18.165V64H49.9998V62Z" fill="#F3C258"/>
<path d="M66 70H16V72H66V70Z" fill="#F3C258"/>
<path d="M41.0282 50.2646H38.9722V64.0004H41.0282V50.2646Z" fill="#F3C258"/>
<path d="M30 0H28V36H30V0Z" fill="#F3C258"/>
<path d="M52 2V0L28 0V2L52 2Z" fill="#F3C258"/>
<path d="M52 36V34H28V36H52Z" fill="#F3C258"/>
<path d="M52 0H50V36H52V0Z" fill="#F3C258"/>
<path d="M45.9999 35.9998H44.0005V45.9997H45.9999V35.9998Z" fill="#F3C258"/>
<path d="M80 78H0V80H80V78Z" fill="#F3C258"/>
<path fill-rule="evenodd" clip-rule="evenodd" d="M68.418 43H66.312L78.102 78.656L80 78.03L68.418 43Z" fill="#F3C258"/>
<path fill-rule="evenodd" clip-rule="evenodd" d="M15.4722 72L18.1502 62L20.0822 62.518L17.5422 72H15.4722Z" fill="#F3C258"/>
<path fill-rule="evenodd" clip-rule="evenodd" d="M11.582 42.9722H13.688L1.89798 78.6282L-1.43051e-05 78.0022L11.582 42.9722Z" fill="#F3C258"/>
<path fill-rule="evenodd" clip-rule="evenodd" d="M36 43H12V45H36V43ZM44 43V45H68V43H44Z" fill="#F3C258"/>
<path fill-rule="evenodd" clip-rule="evenodd" d="M66.5341 72L60.6341 49.978L58.7021 50.496L64.4641 72H66.5341Z" fill="#F3C258"/>
</svg>
