<svg width="80" height="80" viewBox="0 0 80 80" fill="none" xmlns="http://www.w3.org/2000/svg">
<path fill-rule="evenodd" clip-rule="evenodd" d="M44.9745 22.611C42.7995 16.416 44.2995 9.54305 48.9175 4.92405C53.7915 0.0510478 61.1755 -1.35096 67.6245 1.37404L67.6255 1.37504C70.3505 7.82404 68.9485 15.208 64.0755 20.082C59.4565 24.7 52.5835 26.2 46.3885 24.025L42.4645 27.949L40.9995 29.414V60.896L47.7305 54.165C44.6095 45.718 46.5995 36.269 52.9185 29.951C59.4905 23.379 69.4485 21.489 78.1445 25.164C78.1455 25.164 78.1455 25.164 78.1455 25.164L78.1465 25.165C81.8215 33.861 79.9315 43.82 73.3595 50.392C67.0405 56.71 57.5925 58.701 49.1445 55.58L40.9995 63.7251V80H38.9995V46.725L30.8545 38.58C30.7755 38.608 30.6895 38.639 30.5965 38.673C22.2165 41.66 12.8945 39.647 6.63949 33.392C0.502487 27.254 -1.55151 18.163 1.19749 9.90504C1.28249 9.64804 1.75149 8.78404 2.35549 7.96004C10.9295 4.56304 20.6345 6.50404 27.0805 12.951C33.3995 19.269 35.3895 28.718 32.2685 37.165L38.9995 43.896V28.586L44.9745 22.611ZM76.9755 27.749C79.3805 35.219 77.4985 43.424 71.9445 48.978C66.3955 54.527 58.1985 56.41 50.7175 54.007L76.9755 27.749ZM75.5605 26.336L49.3035 52.593C46.8995 45.112 48.7825 36.915 54.3325 31.365C59.8815 25.816 68.0775 23.933 75.5605 26.336ZM3.02448 10.75L29.2815 37.007C21.8005 39.41 13.6035 37.528 8.05448 31.978C2.50448 26.428 0.621481 18.232 3.02448 10.75ZM30.6955 35.593L4.43848 9.33604C11.9205 6.93304 20.1165 8.81504 25.6665 14.365C31.2165 19.915 33.0985 28.111 30.6955 35.593ZM66.4265 3.98704C67.8955 9.19804 66.5085 14.82 62.6615 18.667C58.8155 22.513 53.1965 23.9 47.9815 22.432L66.4265 3.98704ZM65.0115 2.57404L46.5675 21.018C45.0995 15.803 46.4865 10.184 50.3325 6.33804C54.1775 2.49304 59.7965 1.10604 65.0115 2.57404Z" fill="#B2B2B2"/>
</svg>
