<svg width="80" height="80" viewBox="0 0 80 80" fill="none" xmlns="http://www.w3.org/2000/svg">
<path fill-rule="evenodd" clip-rule="evenodd" d="M77.18 67.281C77.925 68.03 78.343 69.044 78.343 70.1C78.343 71.161 77.922 72.179 77.172 72.929C75.841 74.259 74.259 75.841 72.929 77.172C72.185 77.916 71.177 78.337 70.125 78.343H70.1C69.04 78.343 68.022 77.922 67.272 77.172L57.852 67.752C54.585 69.86 50.922 71.406 47 72.255V80H33V72.255C29.078 71.406 25.414 69.859 22.147 67.752L16.665 73.234L6.76601 63.335L12.248 57.853C10.14 54.584 8.594 50.922 7.745 47H0V33H7.745C8.594 29.078 10.141 25.414 12.248 22.147L6.76601 16.665L16.665 6.766L22.147 12.248C25.416 10.14 29.078 8.594 33 7.745V0H47V7.745C50.922 8.594 54.586 10.141 57.853 12.248L63.335 6.766L73.234 16.665L67.752 22.147C69.86 25.416 71.406 29.078 72.255 33H80V47H72.255C71.406 50.922 69.859 54.586 67.752 57.852L77.172 67.272L77.18 67.281ZM49.799 59.699L56.404 66.303C53.428 68.165 50.114 69.535 46.577 70.3L45 70.641V78H35V70.641L33.423 70.3C29.74 69.503 26.299 68.05 23.231 66.071L21.875 65.196L16.665 70.406L9.59399 63.335L14.804 58.125L13.929 56.769C11.949 53.699 10.497 50.26 9.7 46.577L9.35899 45H2V35H9.35899L9.7 33.423C10.497 29.74 11.95 26.299 13.929 23.231L14.804 21.875L9.59399 16.665L16.665 9.594L21.875 14.804L23.231 13.929C26.301 11.949 29.74 10.497 33.423 9.7L35 9.359V2H45V9.359L46.577 9.7C50.26 10.497 53.701 11.95 56.769 13.929L58.125 14.804L63.335 9.594L70.406 16.665L65.196 21.875L66.071 23.231C68.051 26.301 69.503 29.74 70.3 33.423L70.641 35H78V45H70.641L70.3 46.577C69.534 50.115 68.164 53.428 66.303 56.404L59.699 49.799C61.172 46.848 62 43.52 62 40C62 27.858 52.142 18 40 18C27.858 18 18 27.858 18 40C18 52.142 27.858 62 40 62C43.52 62 46.848 61.172 49.799 59.699ZM40 25H40.048C48.306 25.027 55 31.738 55 40C55 41.865 54.659 43.651 54.036 45.299L53.579 46.508L75.757 68.686C76.132 69.061 76.343 69.57 76.343 70.101C76.343 70.631 76.132 71.14 75.757 71.515L71.515 75.757C71.143 76.13 70.639 76.34 70.113 76.343H70.101C69.57 76.343 69.061 76.132 68.686 75.757L46.508 53.579L45.299 54.036C43.664 54.655 41.893 54.995 40.044 55H40C31.721 55 25 48.279 25 40C25 38.066 25.367 36.217 26.034 34.519L35.464 43.95C36.441 44.926 37.72 45.414 39 45.414H39.03C40.3 45.407 41.567 44.918 42.536 43.95L43.95 42.536C45.902 40.583 45.902 37.417 43.95 35.464L34.52 26.034H34.519C36.217 25.367 38.066 25 40 25ZM69.172 67L67.757 68.414L70.586 71.243L72 69.828L69.172 67ZM58.199 48.3L55.906 46.007C56.613 44.138 57 42.114 57 40C57 30.636 49.413 23.03 40.055 23H40C36.757 23 33.726 23.91 31.145 25.489L42.536 36.879C43.707 38.05 43.707 39.95 42.536 41.121C42.073 41.584 41.584 42.073 41.121 42.536C40.54 43.117 39.78 43.41 39.018 43.414H39C38.232 43.414 37.464 43.121 36.879 42.536L25.489 31.145C23.91 33.726 23 36.757 23 40C23 49.383 30.617 57 40 57H40.05C42.145 56.994 44.153 56.608 46.007 55.906L48.3 58.199C45.772 59.355 42.96 60 40 60C28.962 60 20 51.038 20 40C20 28.962 28.962 20 40 20C51.038 20 60 28.962 60 40C60 42.96 59.355 45.772 58.199 48.3Z" fill="#B2B2B2"/>
</svg>
