<svg width="80" height="80" viewBox="0 0 80 80" fill="none" xmlns="http://www.w3.org/2000/svg">
<path fill-rule="evenodd" clip-rule="evenodd" d="M17 0V18H55.078L71.193 1.886C71.974 1.104 73.24 1.104 74.021 1.886C75.254 3.118 77.033 4.897 78.265 6.13C78.64 6.504 78.851 7.012 78.851 7.542C78.851 8.072 78.64 8.58 78.265 8.955C78.264 8.956 78.264 8.957 78.264 8.957L72.607 3.3L70.486 5.421L74.728 9.664L76.838 7.554L78.252 8.968L69.221 18H80V80H10H9.96802C4.46302 79.982 0 75.508 0 70V10V9.968C0.018 4.463 4.492 0 10 0H17ZM67.221 20L58.465 28.756C58.465 28.756 52.641 30.822 49.484 31.942C49.326 31.999 49.16 32.013 49 31.989V32H28V51H60V53H45V65H60V43H62V67H33V65H43V53H28V72H26V32H21V30H48.443L51.394 21.685L53.078 20H17V62H10C5.585 62 2 65.585 2 70C2 74.415 5.585 78 10 78H78V20H67.221ZM10 2H15V60H10C6.73 60 3.825 61.572 2 64.002V10C2 5.585 5.585 2 10 2ZM50.794 29.355L52.219 25.339L54.811 27.93L50.794 29.355ZM66.243 9.664L52.808 23.099L57.051 27.341L70.486 13.906L66.243 9.664ZM69.072 6.835L67.657 8.249L71.9 12.492L73.314 11.078L69.072 6.835Z" fill="#F3C258"/>
</svg>
