<svg width="40" height="40" viewBox="0 0 40 40" fill="none" xmlns="http://www.w3.org/2000/svg">
<path d="M40 0H0V40H40V0Z" fill="#F3C258"/>
<path fill-rule="evenodd" clip-rule="evenodd" d="M12 8V30C12 31.105 12.895 32 14 32C17.074 32 22.926 32 26 32C27.105 32 28 31.105 28 30V8C28 6.895 27.105 6 26 6C22.926 6 17.074 6 14 6C12.895 6 12 6.895 12 8ZM27 28V30C27 30.552 26.552 31 26 31H14C13.448 31 13 30.552 13 30V28H27ZM21 29H19V30H21V29ZM13 11V27H27V11H13ZM27 10H13V8C13 7.448 13.448 7 14 7H26C26.552 7 27 7.448 27 8V10ZM22 8H21V9H22V8ZM20 8H18V9H20V8Z" fill="white"/>
</svg>
